<?xml version="1.0" encoding="UTF-8" standalone="no"?>
<!-- Created with Inkscape (http://www.inkscape.org/) -->
<svg
   xmlns:ns="http://creativecommons.org/ns#"
   xmlns:dc="http://purl.org/dc/elements/1.1/"
   xmlns:cc="http://web.resource.org/cc/"
   xmlns:rdf="http://www.w3.org/1999/02/22-rdf-syntax-ns#"
   xmlns:svg="http://www.w3.org/2000/svg"
   xmlns="http://www.w3.org/2000/svg"
   xmlns:sodipodi="http://sodipodi.sourceforge.net/DTD/sodipodi-0.dtd"
   xmlns:inkscape="http://www.inkscape.org/namespaces/inkscape"
   sodipodi:docname="gurtle_logo.svg"
   sodipodi:docbase="D:\Development\gurtle\logos"
   height="48.359386"
   width="82.856339"
   inkscape:version="0.45.1"
   sodipodi:version="0.32"
   id="svg1340"
   inkscape:output_extension="org.inkscape.output.svg.inkscape"
   version="1.0"
   inkscape:export-filename="D:\Development\gurtle\logos\gurtle_logo-300.png"
   inkscape:export-xdpi="337.15091"
   inkscape:export-ydpi="337.15091">
  <metadata
     id="metadata1345">
    <rdf:RDF>
      <ns:Work
         rdf:about="">
        <dc:format>image/svg+xml</dc:format>
        <dc:type
           rdf:resource="http://purl.org/dc/dcmitype/StillImage" />
      </ns:Work>
      <cc:Work
         rdf:about="">
        <dc:format>image/svg+xml</dc:format>
        <dc:type
           rdf:resource="http://purl.org/dc/dcmitype/StillImage" />
      </cc:Work>
    </rdf:RDF>
  </metadata>
  <defs
     id="defs1343" />
  <sodipodi:namedview
     inkscape:current-layer="svg1340"
     inkscape:window-y="77"
     inkscape:window-x="187"
     inkscape:cy="-7.4518754"
     inkscape:cx="29.171858"
     inkscape:zoom="5.656854"
     inkscape:window-height="976"
     inkscape:window-width="1280"
     inkscape:pageshadow="2"
     inkscape:pageopacity="0.0"
     borderopacity="1.0"
     bordercolor="#666666"
     pagecolor="#ffffff"
     id="base"
     showgrid="false" />
  <path
     sodipodi:nodetypes="cccccccc"
     id="path3580"
     d="M 12.524364,27.717534 L 12.524364,27.717534 C 7.1493637,24.530034 2.6493637,20.842534 2.6493637,20.842534 C -0.60063634,17.280034 4.8993637,19.467534 4.8993637,19.467534 L 14.336864,22.780034 L 14.211864,23.655034 L 11.461864,24.842534 L 12.524364,27.717534 z "
     style="fill:#ffffff;fill-opacity:1;fill-rule:evenodd;stroke:#000000;stroke-width:1px;stroke-linecap:butt;stroke-linejoin:miter;stroke-opacity:1" />
  <path
     sodipodi:nodetypes="ccccccccccccc"
     id="path3584"
     d="M 20.399364,12.030034 C 23.461864,8.9050338 27.586864,7.0300338 33.836864,6.3425338 C 39.774364,6.4050338 42.524364,6.0925338 49.336864,10.030034 C 51.149364,11.405034 55.211864,13.030034 54.024364,15.842534 C 52.149364,19.530034 52.086864,19.280034 51.149364,22.655034 C 50.211864,26.030034 50.961864,25.717534 49.836864,27.280034 C 47.836864,29.405034 49.274364,29.280034 46.711864,30.405034 C 42.774364,28.780034 43.524364,29.092534 41.336864,28.780034 C 37.586864,28.467534 37.586864,28.342534 32.899364,30.592534 C 29.774364,31.092534 32.211864,31.342534 29.024364,30.967534 C 21.399364,27.217534 23.399364,26.030034 19.524364,25.092534 C 15.649364,24.155034 14.899364,24.967534 14.524364,23.217534 C 14.649364,19.717534 17.774364,14.780034 20.399364,12.030034 z "
     style="fill:#ffffff;fill-opacity:0.56666667;fill-rule:evenodd;stroke:#000000;stroke-width:1px;stroke-linecap:butt;stroke-linejoin:miter;stroke-opacity:1" />
  <path
     id="path3590"
     d="M 13.649364,28.217534 C 18.946949,28.406477 20.288283,32.043953 22.836864,33.217534 C 25.910916,33.979086 27.865293,35.592534 31.399364,35.717534 C 35.29712,33.842534 41.078102,34.030034 46.461864,35.530034 C 49.316031,35.592534 50.657488,33.560039 53.211864,28.030034 C 54.577265,23.818432 54.806996,19.958685 56.899364,17.905034 C 58.117886,16.913018 58.994948,15.592534 56.524364,14.592534 C 53.772686,14.030034 52.60676,17.177742 51.149364,21.905034 C 50.283216,26.074829 48.598887,31.149022 45.649364,29.405034 C 40.456085,27.657924 42.563543,28.217534 40.086864,28.092534 C 35.450015,28.405034 31.69111,31.983218 25.649364,28.717534 C 21.175003,25.439888 19.678275,24.609329 14.336864,23.280034 C 13.153333,22.96555 8.0195787,23.552163 13.649364,28.217534 z "
     style="fill:#ffffff;fill-opacity:1;fill-rule:evenodd;stroke:#000000;stroke-width:1px;stroke-linecap:butt;stroke-linejoin:miter;stroke-opacity:1"
     sodipodi:nodetypes="ccccccccccccc" />
  <path
     id="path3593"
     d="M 13.118114,28.155034 C 12.749639,28.523509 10.58158,30.478103 9.3993637,32.655034 C 8.1989237,34.868414 7.9358327,37.165473 9.3368637,40.217534 C 10.435799,43.102903 13.577747,43.434005 17.274364,44.530034 C 18.846133,44.266726 19.994436,45.247462 21.399364,43.655034 C 22.544074,42.385324 23.385808,42.766478 22.336864,40.405034 C 20.140498,36.896168 19.649364,34.623122 21.649364,32.655034 C 21.086864,31.214575 20.423032,30.491202 17.399364,28.717534 C 16.315871,28.321541 14.941428,27.910441 13.118114,28.155034"
     style="fill:#ffffff;fill-opacity:1;fill-rule:evenodd;stroke:#000000;stroke-width:1px;stroke-linecap:butt;stroke-linejoin:miter;stroke-opacity:1"
     sodipodi:nodetypes="ccccccccc" />
  <path
     id="path3599"
     d="M 25.399364,34.342534 C 24.428873,35.625526 24.524364,35.792392 24.774364,37.530034 C 25.461864,39.159331 25.215289,39.81214 28.024364,40.155034 C 31.270808,39.16977 31.306224,37.217534 31.336864,35.780034 C 27.733224,35.655034 26.021416,34.041944 25.399364,34.342534 z "
     style="fill:#424242;fill-opacity:0.80740739;fill-rule:evenodd;stroke:#000000;stroke-width:1px;stroke-linecap:butt;stroke-linejoin:miter;stroke-opacity:1"
     sodipodi:nodetypes="ccccc" />
  <path
     id="path3601"
     d="M 30.524364,41.280034 C 30.749674,43.618772 33.834482,44.862573 38.649364,45.655034 C 42.283736,45.408158 45.400627,47.087482 47.774364,43.530034 C 48.202839,40.878636 47.593782,36.967534 45.586864,35.342534 C 43.449973,33.467534 36.342718,33.327692 33.211864,34.530034 C 30.498213,36.015495 30.107083,39.17341 30.524364,41.280034 z "
     style="fill:#ffffff;fill-opacity:1;fill-rule:evenodd;stroke:#000000;stroke-width:1px;stroke-linecap:butt;stroke-linejoin:miter;stroke-opacity:1"
     sodipodi:nodetypes="cccccc" />
  <path
     id="path3604"
     d="M 20.586864,36.842534 C 16.232445,36.217534 13.106612,35.931365 11.586864,42.530034 C 16.590128,44.763553 19.905383,45.009895 21.149364,44.092534 C 24.596921,41.663117 21.043229,39.06186 20.586864,36.842534 z "
     style="fill:none;fill-opacity:0.75;fill-rule:evenodd;stroke:#000000;stroke-width:1px;stroke-linecap:butt;stroke-linejoin:miter;stroke-opacity:1"
     sodipodi:nodetypes="cccc" />
  <path
     id="path3606"
     d="M 46.836864,37.592534 C 42.899364,37.803455 39.291653,39.182956 37.024364,44.905034 C 37.652354,45.649054 37.872437,45.641571 38.961864,45.717534 C 41.519058,45.589881 44.214182,46.122045 46.086864,45.280034 C 49.280594,43.181611 47.322774,37.800263 46.774364,37.717534"
     style="fill:none;fill-opacity:0.75;fill-rule:evenodd;stroke:#000000;stroke-width:1px;stroke-linecap:butt;stroke-linejoin:miter;stroke-opacity:1"
     sodipodi:nodetypes="ccccc" />
  <path
     id="path3608"
     d="M 15.899364,36.780034 C 16.882912,38.355678 18.069241,39.690279 17.211864,44.217534"
     style="fill:none;fill-opacity:0.75;fill-rule:evenodd;stroke:#000000;stroke-width:1px;stroke-linecap:butt;stroke-linejoin:miter;stroke-opacity:1"
     sodipodi:nodetypes="cc" />
  <path
     id="path3610"
     d="M 18.399364,36.592534 C 19.515851,38.67206 20.586864,40.691227 19.961864,44.405034"
     style="fill:none;fill-opacity:0.75;fill-rule:evenodd;stroke:#000000;stroke-width:1px;stroke-linecap:butt;stroke-linejoin:miter;stroke-opacity:1"
     sodipodi:nodetypes="cc" />
  <path
     id="path3612"
     d="M 40.024364,39.905034 C 41.402609,40.35876 43.245881,42.166104 43.711864,45.842534"
     style="fill:none;fill-opacity:0.75;fill-rule:evenodd;stroke:#000000;stroke-width:1px;stroke-linecap:butt;stroke-linejoin:miter;stroke-opacity:1"
     sodipodi:nodetypes="cc" />
  <path
     id="path3614"
     d="M 42.836864,38.155034 C 44.419717,39.673948 46.17405,40.816278 46.274364,44.967534"
     style="fill:none;fill-opacity:0.75;fill-rule:evenodd;stroke:#000000;stroke-width:1px;stroke-linecap:butt;stroke-linejoin:miter;stroke-opacity:1"
     sodipodi:nodetypes="cc" />
  <path
     id="path3616"
     d="M 49.149364,34.842534 C 48.762863,37.984029 50.122396,42.702623 53.774364,42.717534 C 59.339348,43.290865 60.720736,41.298177 62.024364,39.342534 C 63.04707,35.604006 59.149309,31.654993 56.399364,29.155034 C 55.303709,28.177043 55.139882,28.217534 53.774364,28.155034 C 51.689283,28.905034 51.227052,34.264846 49.086864,34.842534"
     style="fill:#ffffff;fill-opacity:1;fill-rule:evenodd;stroke:#000000;stroke-width:1px;stroke-linecap:butt;stroke-linejoin:miter;stroke-opacity:1"
     sodipodi:nodetypes="cccccc" />
  <path
     id="path3618"
     d="M 53.274364,42.467534 C 57.500311,43.818481 58.412331,42.579568 61.274364,40.530034 C 63.179932,38.624467 61.958633,34.401803 59.274364,32.155034 C 56.700707,32.831377 50.625584,37.443754 53.274364,42.467534 z "
     style="fill:#ffffff;fill-opacity:1;fill-rule:evenodd;stroke:#000000;stroke-width:1px;stroke-linecap:butt;stroke-linejoin:miter;stroke-opacity:1"
     sodipodi:nodetypes="cccc" />
  <path
     id="path3620"
     d="M 54.024364,36.030034 C 54.003531,36.009201 57.116479,37.585995 57.961864,42.217534"
     style="fill:none;fill-opacity:0.75;fill-rule:evenodd;stroke:#000000;stroke-width:1px;stroke-linecap:butt;stroke-linejoin:miter;stroke-opacity:1"
     sodipodi:nodetypes="cc" />
  <path
     id="path3622"
     d="M 56.399364,34.155034 C 57.492298,35.137369 59.903015,36.695411 60.774364,40.717534"
     style="fill:none;fill-opacity:0.75;fill-rule:evenodd;stroke:#000000;stroke-width:1px;stroke-linecap:butt;stroke-linejoin:miter;stroke-opacity:1"
     sodipodi:nodetypes="cc" />
  <path
     id="path3624"
     d="M 64.336864,12.717534 C 65.263695,7.1763718 65.271274,7.1104768 67.024364,5.4050338 C 71.119447,2.7868468 66.189457,17.958492 74.649364,12.592534 C 75.06421,13.291495 77.625526,12.980906 78.461864,13.967534 C 80.574896,15.849183 80.899364,16.68839 80.336864,17.530034 C 78.211864,21.114791 77.37027,19.496628 74.524364,20.467534 C 73.929714,22.187184 72.501383,22.582654 67.649364,22.655034 C 64.501554,22.926362 64.036095,24.980226 62.649364,26.280034 C 61.122846,27.474164 59.506947,29.86712 53.336864,27.842534 C 54.786416,23.719777 54.006283,19.84047 57.399364,17.467534 C 62.532513,18.227047 63.074896,15.24147 64.336864,12.717534 z "
     style="fill:#ffffff;fill-opacity:1;fill-rule:evenodd;stroke:#000000;stroke-width:1px;stroke-linecap:butt;stroke-linejoin:miter;stroke-opacity:1"
     sodipodi:nodetypes="ccccccccccc" />
  <path
     id="path3626"
     d="M 68.774364,16.655034 C 69.955904,18.753254 71.530627,20.092534 75.024364,20.217534"
     style="fill:none;fill-opacity:0.75;fill-rule:evenodd;stroke:#000000;stroke-width:1px;stroke-linecap:butt;stroke-linejoin:miter;stroke-opacity:1"
     sodipodi:nodetypes="cc" />
  <path
     transform="translate(1.4618637,-9.5196468)"
     d="M 77.8125 17.424681 A 3.375 5.375 0 1 1  71.0625,17.424681 A 3.375 5.375 0 1 1  77.8125 17.424681 z"
     sodipodi:ry="5.375"
     sodipodi:rx="3.375"
     sodipodi:cy="17.424681"
     sodipodi:cx="74.4375"
     id="path3628"
     style="fill:#ff0000;fill-opacity:1;fill-rule:evenodd;stroke:#000000;stroke-width:1px;stroke-linecap:butt;stroke-linejoin:miter;stroke-opacity:1"
     sodipodi:type="arc" />
  <path
     transform="translate(-2.4756363,-8.8321468)"
     d="M 77.8125 17.424681 A 3.375 5.375 0 1 1  71.0625,17.424681 A 3.375 5.375 0 1 1  77.8125 17.424681 z"
     sodipodi:ry="5.375"
     sodipodi:rx="3.375"
     sodipodi:cy="17.424681"
     sodipodi:cx="74.4375"
     id="path5148"
     style="fill:#ffff00;fill-opacity:1;fill-rule:evenodd;stroke:#000000;stroke-width:1px;stroke-linecap:butt;stroke-linejoin:miter;stroke-opacity:1"
     sodipodi:type="arc" />
  <path
     transform="matrix(1.769231,0,0,2.028571,-33.889096,-19.760037)"
     d="M 61.3125 14.330931 A 0.8125 1.09375 0 1 1  59.6875,14.330931 A 0.8125 1.09375 0 1 1  61.3125 14.330931 z"
     sodipodi:ry="1.09375"
     sodipodi:rx="0.8125"
     sodipodi:cy="14.330931"
     sodipodi:cx="60.5"
     id="path5150"
     style="fill:#000000;fill-opacity:1"
     sodipodi:type="arc" />
  <path
     transform="matrix(1.615385,0,0,1.942857,-20.456406,-19.469167)"
     d="M 61.3125 14.330931 A 0.8125 1.09375 0 1 1  59.6875,14.330931 A 0.8125 1.09375 0 1 1  61.3125 14.330931 z"
     sodipodi:ry="1.09375"
     sodipodi:rx="0.8125"
     sodipodi:cy="14.330931"
     sodipodi:cx="60.5"
     id="path5912"
     style="fill:#000000;fill-opacity:1"
     sodipodi:type="arc" />
  <path
     style="fill:none;fill-rule:evenodd;stroke:#000000;stroke-width:1px;stroke-linecap:butt;stroke-linejoin:miter;stroke-opacity:1"
     d="M 26.339729,29.179114 C 26.339729,29.179114 24.041632,20.870609 27.223612,15.920861 C 30.405593,10.971113 32.792078,9.4685117 35.620505,8.4962398 C 38.448933,7.523968 43.487069,7.4355797 43.487069,7.4355797"
     id="path2404"
     sodipodi:nodetypes="cssc" />
  <path
     style="fill:none;fill-rule:evenodd;stroke:#000000;stroke-width:1px;stroke-linecap:butt;stroke-linejoin:miter;stroke-opacity:1"
     d="M 26.516505,7.9659098 C 26.516505,7.9659098 28.902991,7.3471913 36.504389,8.2310748 C 44.105787,9.1149584 46.13872,11.14789 47.72971,12.385327 C 49.3207,13.622764 52.767846,17.06991 52.767846,17.06991"
     id="path2406"
     sodipodi:nodetypes="cssc" />
  <path
     style="fill:#ff0000"
     d="M 29.799634,29.481576 C 29.041755,29.409056 28.121592,29.185899 27.276196,28.869596 L 26.779956,28.683928 L 26.64097,28.047579 C 26.194746,26.004522 25.990849,23.370018 26.13868,21.557653 C 26.356027,18.893039 26.824203,17.508324 28.205449,15.444787 C 30.317107,12.290033 32.326399,10.457 34.8386,9.3935038 C 36.286775,8.7804431 36.407535,8.7604576 37.616218,8.9338004 C 41.03528,9.4241419 43.927226,10.36027 45.696496,11.549403 C 47.039369,12.451954 48.577615,13.766978 50.692987,15.820824 L 52.209634,17.293367 L 51.865122,18.136827 C 51.412442,19.245128 50.622312,21.759425 50.32553,23.036007 C 49.713335,25.669285 48.775516,27.819005 47.875378,28.652373 C 47.276257,29.207053 46.931964,29.311297 46.368762,29.108539 C 46.162837,29.034407 45.099418,28.663239 44.005613,28.283728 C 42.064695,27.610303 41.993496,27.592939 41.044603,27.561718 C 39.462516,27.509662 38.595712,27.681081 34.688925,28.818612 C 32.586403,29.430795 31.213889,29.616905 29.799632,29.481576 L 29.799634,29.481576 z"
     id="path2408" />
  <path
     style="fill:#ffff00"
     d="M 24.957923,27.558201 C 23.536789,26.47684 21.604374,25.269054 20.450117,24.74076 C 19.192529,24.165171 17.276138,23.487109 15.87602,23.122337 C 14.96898,22.886029 14.994919,22.952922 15.317402,21.681657 C 16.053094,18.781478 18.239299,15.097863 20.801202,12.441805 C 22.099714,11.095567 23.454512,10.112369 25.255953,9.2089118 C 26.666448,8.5015222 27.066141,8.3901917 28.449263,8.3194448 C 29.550197,8.2631335 33.241969,8.393379 33.752564,8.5065471 L 33.973535,8.555523 L 33.70837,8.6894005 C 31.400734,9.8544809 29.521169,11.632598 27.493671,14.568665 C 27.114429,15.117853 26.676564,15.791746 26.520638,16.0662 C 25.044479,18.664473 24.623029,22.814295 25.388346,27.215319 C 25.453577,27.590445 25.482856,27.896717 25.453408,27.895924 C 25.423959,27.895129 25.200991,27.743155 24.957923,27.558201 z"
     id="path2412" />
  <path
     style="fill:#0000ff"
     d="M 34.813224,7.5252057 C 34.254168,7.4607608 33.248859,7.37874 32.579205,7.3429383 C 31.909549,7.3071375 31.373405,7.2660908 31.387771,7.2517259 C 31.402135,7.2373593 32.024761,7.1403203 32.771381,7.0360813 C 34.063727,6.8556515 34.264634,6.8510014 36.957704,6.9391865 C 38.513561,6.9901317 39.805185,7.0504656 39.82798,7.0732601 C 39.850775,7.0960555 39.736091,7.1350922 39.573129,7.1600089 C 39.410169,7.1849273 38.759764,7.291818 38.127787,7.3975464 C 36.644782,7.6456507 36.055079,7.6683621 34.813224,7.5252065 L 34.813224,7.5252057 z"
     id="path2414" />
  <path
     style="fill:#008000"
     d="M 51.209219,14.802363 C 46.695074,10.512986 44.788045,9.3528832 40.691049,8.4038548 C 40.204913,8.2912472 39.906603,8.1957038 40.028137,8.1915389 C 40.149671,8.1873741 40.706517,8.1465855 41.265574,8.1008976 C 41.82463,8.0552105 42.640013,8.0099088 43.077535,8.0002285 C 43.851929,7.9830944 43.902493,7.9947918 44.983724,8.4411962 C 46.514169,9.0730634 48.7576,10.298474 50.57901,11.497461 C 52.766056,12.937133 53.437728,13.606922 53.652361,14.562205 C 53.727571,14.896937 53.713067,14.943974 53.441953,15.244457 C 53.281802,15.421961 53.05871,15.716347 52.9462,15.898648 C 52.833691,16.080949 52.734917,16.230104 52.726706,16.230104 C 52.718503,16.230104 52.035624,15.587621 51.209219,14.802364 L 51.209219,14.802363 z"
     id="path2416" />
  <text
     xml:space="preserve"
     style="font-size:12px;font-style:normal;font-weight:normal;opacity:1;fill:#00ff00;fill-opacity:1;stroke:#008c00;stroke-width:0.30000001;stroke-linecap:butt;stroke-linejoin:miter;stroke-miterlimit:4;stroke-dasharray:none;stroke-opacity:1;font-family:Comic Sans MS"
     x="16.970564"
     y="24.317755"
     id="text3159"><tspan
       sodipodi:role="line"
       id="tspan3161"
       x="16.970564"
       y="24.317755">Gurtle</tspan></text>
</svg>
